<svg xmlns="http://www.w3.org/2000/svg" viewBox="0 0 64 64" role="img" aria-label="CineMatch">
  <defs>
    <linearGradient id="bg" x1="10" x2="54" y1="8" y2="58" gradientUnits="userSpaceOnUse">
      <stop stop-color="#a855f7" />
      <stop offset="0.55" stop-color="#7c3aed" />
      <stop offset="1" stop-color="#ec4899" />
    </linearGradient>
    <linearGradient id="shine" x1="18" x2="46" y1="16" y2="48" gradientUnits="userSpaceOnUse">
      <stop stop-color="#ffffff" />
      <stop offset="1" stop-color="#d8b4fe" />
    </linearGradient>
  </defs>

  <rect width="64" height="64" rx="18" fill="#080612" />
  <rect x="7" y="7" width="50" height="50" rx="15" fill="url(#bg)" />
  <path
    fill="#12091f"
    fill-opacity="0.38"
    d="M15 21a6 6 0 0 1 6-6h22a6 6 0 0 1 6 6v22a6 6 0 0 1-6 6H21a6 6 0 0 1-6-6V21Z"
  />
  <path
    fill="none"
    stroke="#f5edff"
    stroke-linecap="round"
    stroke-linejoin="round"
    stroke-width="3.4"
    d="M19 22h26v21H19V22Zm7 0v21m12-21v21M19 29h7m12 0h7M19 36h7m12 0h7"
  />
  <path
    fill="url(#shine)"
    d="M42.1 10.4c.33 3.55 2.02 5.24 5.5 5.5-3.48.34-5.17 2.03-5.5 5.5-.27-3.47-1.96-5.16-5.5-5.5 3.54-.26 5.23-1.95 5.5-5.5Zm-19 31.2c.22 2.31 1.32 3.41 3.6 3.6-2.28.22-3.38 1.32-3.6 3.6-.18-2.28-1.28-3.38-3.6-3.6 2.32-.19 3.42-1.29 3.6-3.6Z"
  />
</svg>
